<svg xmlns="http://www.w3.org/2000/svg" viewBox="0 0 4960 50" width="4960" height="50">
  <path
    d="M0 .9h1.7C12.3.9 22.4 5.3 29.5 13l22.8 24.8C67.2 54 93 54 107.9 37.9l22.8-24.8C137.8 5.4 147.9 1 158.5 1h1.5V0H0v.9zM160 .898h1.7c10.6 0 20.7 4.389 27.8 12.07l22.8 24.738c14.9 16.16 40.7 16.16 55.6.1l22.8-24.738c7.1-7.681 17.2-12.07 27.8-12.07h1.5V0H160v.898z"
    fill="#241d46"/>
  <path
    d="M320 .89h1.7c10.6 0 20.7 4.354 27.8 11.972l22.8 24.536c14.9 16.027 40.7 16.027 55.6.099l22.8-24.536C457.8 5.343 467.9.989 478.5.989h1.5V0H320v.89zM480 .877h1.7c10.6 0 20.7 4.286 27.8 11.787l22.8 24.158c14.9 15.781 40.7 15.781 55.6.098l22.8-24.159C617.8 5.26 627.9.974 638.5.974h1.5V0H480v.877zM640 .855h1.7c10.6 0 20.7 4.18 27.8 11.496l22.8 23.562c14.9 15.391 40.7 15.391 55.6.095l22.8-23.562C777.8 5.13 787.9.95 798.5.95h1.5V0H640v.855zM800 .823h1.7c10.6 0 20.7 4.026 27.8 11.071l22.8 22.689c14.9 14.821 40.7 14.821 55.6.092l22.8-22.69C937.8 4.94 947.9.915 958.5.915h1.5V0H800v.823zM960 .779h1.7c10.6 0 20.7 3.811 27.8 10.48l22.8 21.478c14.9 14.03 40.7 14.03 55.6.086l22.8-21.478c7.1-6.668 17.2-10.479 27.8-10.479h1.5V0H960v.779zM1120 .721h1.7c10.6 0 20.7 3.527 27.8 9.699l22.8 19.878c14.9 12.985 40.7 12.985 55.6.08l22.8-19.878c7.1-6.172 17.2-9.698 27.8-9.698h1.5V0h-160v.721zM1280 .65h1.7c10.6 0 20.7 3.176 27.8 8.735l22.8 17.905c14.9 11.695 40.7 11.695 55.6.072l22.8-17.905c7.1-5.558 17.2-8.735 27.8-8.735h1.5V0h-160v.65zM1440 .569h1.7c10.6 0 20.7 2.784 27.8 7.656l22.8 15.691c14.9 10.25 40.7 10.25 55.6.063l22.8-15.691c7.1-4.871 17.2-7.655 27.8-7.655h1.5V0h-160v.569zM1600 .488h1.7c10.6 0 20.7 2.389 27.8 6.568l22.8 13.46c14.9 8.792 40.7 8.792 55.6.054l22.8-13.46c7.1-4.179 17.2-6.567 27.8-6.567h1.5V0h-160v.488zM1760 .414h1.7c10.6 0 20.7 2.022 27.8 5.56l22.8 11.397c14.9 7.444 40.7 7.444 55.6.046l22.8-11.397c7.1-3.538 17.2-5.56 27.8-5.56h1.5V0h-160v.414zM1920 .348h1.7c10.6 0 20.7 1.7 27.8 4.675l22.8 9.583c14.9 6.26 40.7 6.26 55.6.039l22.8-9.583c7.1-2.975 17.2-4.676 27.8-4.676h1.5V0h-160v.348zM2080 .291h1.7c10.6 0 20.7 1.424 27.8 3.916l22.8 8.024c14.9 5.242 40.7 5.242 55.6.033l22.8-8.025c7.1-2.492 17.2-3.915 27.8-3.915h1.5V0h-160v.291z"
    fill="#241d46"/>
  <path
    d="M2240 .243h1.7c10.6 0 20.7 1.188 27.8 3.267l22.8 6.697c14.9 4.375 40.7 4.375 55.6.027l22.8-6.697c7.1-2.079 17.2-3.267 27.8-3.267h1.5V0h-160v.243z"
    fill="#241d46"/>
  <path
    d="M2400 .202h1.7c10.6 0 20.7.988 27.8 2.716l22.8 5.566c14.9 3.636 40.7 3.636 55.6.022l22.8-5.566c7.1-1.728 17.2-2.716 27.8-2.716h1.5V0h-160v.202z"
    fill="#241d46"/>
  <path
    d="M2560 .167h1.7c10.6 0 20.7.817 27.8 2.245l22.8 4.602c14.9 3.007 40.7 3.007 55.6.019l22.8-4.602c7.1-1.429 17.2-2.245 27.8-2.245h1.5V0h-160v.167z"
    fill="#241d46"/>
  <path
    d="M2720 .137h1.7c10.6 0 20.7.671 27.8 1.844l22.8 3.779c14.9 2.469 40.7 2.469 55.6.015l22.8-3.779c7.1-1.173 17.2-1.844 27.8-1.844h1.5V0h-160v.137z"
    fill="#241d46"/>
  <path
    d="M2880 .112h1.7c10.6 0 20.7.545 27.8 1.5l22.8 3.076c14.9 2.01 40.7 2.01 55.6.013l22.8-3.076c7.1-.955 17.2-1.501 27.8-1.501h1.5V0h-160v.112z"
    fill="#241d46"/>
  <path
    d="M3040 .09h1.7c10.6 0 20.7.439 27.8 1.208l22.8 2.476c14.9 1.617 40.7 1.617 55.6.01l22.8-2.476C3177.8.539 3187.9.1 3198.5.1h1.5V0h-160v.09zM3200 .071h1.7c10.6 0 20.7.349 27.8.959l22.8 1.965c14.9 1.283 40.7 1.283 55.6.008l22.8-1.965c7.1-.61 17.2-.959 27.8-.959h1.5V0h-160v.071z"
    fill="#241d46"/>
  <path
    d="M3360 .056h1.7c10.6 0 20.7.271 27.8.747l22.8 1.531c14.9 1.001 40.7 1.001 55.6.006l22.8-1.531c7.1-.476 17.2-.747 27.8-.747h1.5V0h-160v.056z"
    fill="#241d46"/>
  <path
    d="M3520 .042h1.7c10.6 0 20.7.207 27.8.57l22.8 1.166c14.9.763 40.7.763 55.6.005l22.8-1.167c7.1-.362 17.2-.569 27.8-.569h1.5V0h-160v.042z"
    fill="#241d46"/>
  <path
    d="M3680 .031h1.7c10.6 0 20.7.153 27.8.421l22.8.863c14.9.564 40.7.564 55.6.004l22.8-.863c7.1-.268 17.2-.421 27.8-.421h1.5V0h-160v.031z"
    fill="#241d46"/>
  <path
    d="M3840 .022h1.7c10.6 0 20.7.109 27.8.3l22.8.613c14.9.401 40.7.401 55.6.002l22.8-.613c7.1-.19 17.2-.299 27.8-.299h1.5V0h-160v.022z"
    fill="#241d46"/>
  <path
    d="M4000 .015h1.7c10.6 0 20.7.073 27.8.201l22.8.413c14.9.27 40.7.27 55.6.002l22.8-.413c7.1-.128 17.2-.201 27.8-.201h1.5V0h-160v.015z"
    fill="#241d46"/>
  <path
    d="M4160 .009h1.7c10.6 0 20.7.046 27.8.125l22.8.257c14.9.167 40.7.167 55.6.001l22.8-.257c7.1-.079 17.2-.125 27.8-.125h1.5V0h-160v.009z"
    fill="#241d46"/>
  <path
    d="M4320 .005h1.7c10.6 0 20.7.025 27.8.068l22.8.14c14.9.092 40.7.092 55.6.001l22.8-.14c7.1-.044 17.2-.068 27.8-.068h1.5V0h-160v.005z"
    fill="#241d46"/>
  <path
    d="M4480 .002h1.7c10.6 0 20.7.011 27.8.03l22.8.06c14.9.04 40.7.04 55.6 0l22.8-.06c7.1-.019 17.2-.03 27.8-.03h1.5V0h-160v.002z"
    fill="#241d46"/>
  <path
    d="M4640 .001h1.7c10.6 0 20.7.002 27.8.007l22.8.014c14.9.01 40.7.01 55.6.001l22.8-.015c7.1-.005 17.2-.007 27.8-.007h1.5V0h-160v.001zM4800 0H4960h-160z"
    fill="#241d46"/>
</svg>
